<svg xmlns="http://www.w3.org/2000/svg" width="100" height="100" viewBox="0 0 100 100"><path d="M89.5 23.6c-.3.9-1.1 1.6-2.3 2.3L20.3 66.6c-2.6 1.6-4.1 2.9-4.6 3.9s-.7 2-.6 3c-3.3-6.3-5-13.9-5.2-22.9v-3.4c0-1.6 1.1-3 3.2-4.3l23.4-14.2H9.9V7c3.7 0 7-.2 9.9-.6 2.9-.4 6.3-1.1 10.1-1.9 4-.9 7.4-1.5 10.2-1.9 2.8-.4 6.1-.6 9.8-.6 3.7 0 7 .2 9.9.6 2.9.4 6.3 1.1 10.2 1.9 3.8.9 7.2 1.5 10.1 1.9 2.9.3 6.2.6 10 .6v13.5c0 1.2-.2 2.2-.6 3.1zm-9.8 57.5C72.8 88.9 63 94.6 50.1 98.2 40 95.4 31.7 91.3 25.2 85.9c-.9-.8-1.3-1.6-1.3-2.6 0-.9.3-1.7.8-2.5s1.2-1.4 2.1-1.9l59.2-36c1.6-1 2.7-1.7 3.2-2.3.5-.6.8-1.4.9-2.4v12.3c-.1 12.6-3.6 22.8-10.4 30.6z"/></svg>
