<svg width="100" height="100" xmlns="http://www.w3.org/2000/svg"><path d="M90.97585 22.60739c-.35949.89766-1.16713 1.7051-2.42232 2.42193L19.25122 67.14906c-2.69141 1.61488-4.28501 2.96029-4.77728 4.03701-.49403 1.07672-.69575 2.10892-.60553 3.09523-3.41059-6.5476-5.20395-14.44315-5.38262-23.68411v-3.49846c0-1.61469 1.12065-3.09523 3.36431-4.44083l24.22208-14.66771H8.48599V5.38261c3.85639 0 7.28787-.223 10.29464-.67271 3.00442-.44775 6.48004-1.12065 10.42898-2.01851 4.12508-.8959 7.64697-1.5688 10.56333-2.01851 2.91441-.44775 6.30156-.6729 10.1599-.6729 3.85619 0 7.28748.22515 10.29425.6729 3.00482.44971 6.52671 1.12261 10.56372 2.01851 3.9468.89785 7.42241 1.57075 10.42898 2.01851 3.00482.44971 6.4361.67271 10.29444.67271v13.99481c-.0002 1.25734-.18082 2.33406-.53836 3.22996zM80.74858 82.2206c-7.08791 8.07422-17.31518 13.99539-30.68122 17.76332-10.49635-2.87242-19.10873-7.13204-25.83715-12.78394-.89746-.80764-1.34561-1.70549-1.34561-2.69141 0-.89785.26928-1.74942.80744-2.55706.53816-.80725 1.25539-1.47995 2.15324-2.01851l61.36263-37.2751c1.70334-.98631 2.82614-1.77051 3.36431-2.35496.53855-.58249.85157-1.41297.94198-2.48969v12.78374c-.09061 13.00908-3.67967 23.54957-10.76563 31.62359z"/></svg>