<svg xmlns="http://www.w3.org/2000/svg" width="830.701" height="1000">
    <path d="M0 505.641V54.182C176.069 54.182 237.017 0 415.346 0c178.327 0 239.275 54.182 415.355 54.182v451.459c-4.52 103.836-15.806 383.746-415.355 494.359C13.545 889.387 4.507 609.477 0 505.641zm584.646 205.42l-85.78-85.781H343.109c-36.116 0-56.428-20.309-56.428-56.428V318.29l-85.78-85.78v383.745c0 51.922 42.885 94.807 94.807 94.807h288.938zm42.885-424.38c0-54.171-40.627-94.808-94.807-94.808H246.043l85.78 85.78H487.58c36.116 0 54.182 18.064 54.182 54.17v250.575l85.77 85.777V286.681z"/>
</svg>
