<svg xmlns="http://www.w3.org/2000/svg" width="100" height="100" viewBox="247.64 247.64 100 100"><path d="M266.32 252.7c2.8-.45 6.38-1.16 10.75-2.14 3.92-.89 7.37-1.56 10.35-2a70 70 0 0110.22-.67c3.83 0 7.23.22 10.22.67 2.98.44 6.43 1.11 10.35 2 4.36.98 7.95 1.7 10.75 2.14 2.81.44 6.17.62 10.1.53v45.02c-.28 5.97-1.17 11.78-2.68 17.43s-5.3 11.56-11.36 17.7c-6.06 6.15-15.18 10.87-27.38 14.16-12.2-3.3-21.33-8.02-27.38-14.16-6.06-6.14-9.85-12.04-11.36-17.7a81 81 0 01-2.67-17.43v-45.02c3.92.1 7.28-.09 10.09-.53zm-4.21 39.13l26.18-15.9H259.7v20.18c0-1.87.8-3.3 2.4-4.28zm3.2 29.66a43.84 43.84 0 006.82 8.55c.35-1.51 1.42-2.8 3.2-3.88l57.44-34.6a5.39 5.39 0 002.8-4.8v-16.3a5.46 5.46 0 01-2.66 4.41l-65.6 39.27a6.17 6.17 0 00-1.93 2.07 5.36 5.36 0 00-.07 5.28z"/></svg>
