<svg viewBox="0 0 100 100" width="100" height="100" xmlns="http://www.w3.org/2000/svg"><path d="M90.98 22.6c-.36.9-1.17 1.71-2.43 2.43l-69.3 42.12c-2.69 1.61-4.28 2.96-4.78 4.04-.49 1.07-.7 2.1-.6 3.1-3.41-6.56-5.2-14.45-5.38-23.7v-3.5c0-1.6 1.12-3.09 3.36-4.43l24.22-14.67H8.5V5.39c3.85 0 7.28-.23 10.3-.68 3-.45 6.47-1.12 10.42-2.02 4.12-.9 7.65-1.57 10.56-2.02C42.7.23 46.07 0 49.93 0c3.86 0 7.29.23 10.3.67 3 .45 6.52 1.13 10.56 2.02 3.95.9 7.42 1.57 10.43 2.02 3 .45 6.44.67 10.3.67v14c0 1.25-.19 2.33-.54 3.23zM80.75 82.23c-7.09 8.07-17.32 14-30.68 17.76-10.5-2.87-19.11-7.13-25.84-12.78-.9-.8-1.35-1.7-1.35-2.7 0-.89.27-1.74.81-2.55a6.65 6.65 0 0 1 2.16-2.02L87.2 42.66c1.7-.99 2.82-1.77 3.36-2.36.54-.58.85-1.41.94-2.49V50.6c-.09 13-3.68 23.55-10.76 31.62z"/></svg>
